<svg class="art" viewBox="0 0 480 360" xmlns="http://www.w3.org/2000/svg" role="img" aria-label="A support chat with a friendly reply and an envelope"><defs>
<linearGradient id="pbg" x1="0" y1="0" x2="1" y2="1"><stop offset="0" class="pb1"/><stop offset=".55" class="pb2"/><stop offset="1" class="pb3"/></linearGradient>
<radialGradient id="glow" cx=".5" cy=".5" r=".5"><stop offset="0" class="gw"/><stop offset="1" class="gw" stop-opacity="0"/></radialGradient>
<linearGradient id="g" x1="0" y1="0" x2="1" y2="1"><stop offset="0" class="st1"/><stop offset=".55" class="st2"/><stop offset="1" class="st3"/></linearGradient>
<linearGradient id="gh" x1="0" y1="0" x2="1" y2="0"><stop offset="0" class="st1"/><stop offset=".6" class="st2"/><stop offset="1" class="st3"/></linearGradient>
<linearGradient id="gold" x1="0" y1="0" x2="1" y2="1"><stop offset="0" stop-color="#f7e2a4"/><stop offset="1" stop-color="#c58f2c"/></linearGradient>
<filter id="sh" x="-30%" y="-30%" width="160%" height="170%"><feDropShadow dx="0" dy="12" stdDeviation="14" flood-color="#141c4d" flood-opacity=".16"/></filter>
<filter id="shs" x="-30%" y="-40%" width="160%" height="190%"><feDropShadow dx="0" dy="5" stdDeviation="7" flood-color="#141c4d" flood-opacity=".16"/></filter>
<clipPath id="clip"><rect width="480" height="360" rx="28"/></clipPath>
</defs><g clip-path="url(#clip)"><rect width="480" height="360" fill="url(#pbg)"/><ellipse cx="86.39999999999999" cy="36.0" rx="240.0" ry="180.0" fill="url(#glow)"/><ellipse cx="456.0" cy="360.0" rx="192.0" ry="162.0" fill="url(#glow)" opacity=".6"/><g filter="url(#sh)"><rect class="c-card" x="44" y="40" width="330" height="280" rx="20" /></g><circle cx="80" cy="78" r="18" fill="url(#g)"/><text class="" x="80" y="82.5" font-size="12" font-weight="800" text-anchor="middle" fill="#fff">B1</text><text class="t-ink" x="108" y="74" font-size="15" font-weight="800" text-anchor="start" >Prêt Français</text><text class="t-mute" x="108" y="93" font-size="12" font-weight="600" text-anchor="start" >Replies within two business days</text><rect x="44" y="110" width="330" height="1" class="c-line"/><rect x="64" y="128" width="224" height="44" rx="16" class="c-soft"/><text class="t-ink" x="82" y="155" font-size="14" font-weight="600" text-anchor="start" >Bonjour ! How can we help?</text><rect x="134" y="184" width="220" height="44" rx="16" fill="url(#gh)"/><text class="" x="152" y="211" font-size="14" font-weight="600" text-anchor="start" fill="#fff">Where should I start?</text><rect x="64" y="240" width="250" height="44" rx="16" class="c-soft"/><text class="t-ink" x="82" y="267" font-size="14" font-weight="600" text-anchor="start" >Try the 2-minute check →</text><g class="fl1"><g filter="url(#sh)"><circle cx="404" cy="96" r="44" fill="url(#g)"/></g><rect x="380" y="80" width="48" height="34" rx="6" fill="none" stroke="#fff" stroke-width="3.2"/><path d="M382 84 L404 100 L426 84" fill="none" stroke="#fff" stroke-width="3.2" stroke-linejoin="round" stroke-linecap="round"/></g></g><rect x=".5" y=".5" width="479" height="359" rx="28" fill="none" class="k-frame"/></svg>
