<svg class="art cover" viewBox="0 0 480 220" xmlns="http://www.w3.org/2000/svg" role="img" aria-label="A bar chart of NCLC levels with level 5 highlighted"><defs>
<radialGradient id="bg" cx=".5" cy=".5" r=".5"><stop offset="0" class="sbg"/><stop offset=".65" class="sbg" stop-opacity=".55"/><stop offset="1" class="sbg" stop-opacity="0"/></radialGradient>
<linearGradient id="g" x1="0" y1="0" x2="1" y2="1"><stop offset="0" class="st1"/><stop offset=".55" class="st2"/><stop offset="1" class="st3"/></linearGradient>
<linearGradient id="gh" x1="0" y1="0" x2="1" y2="0"><stop offset="0" class="st1"/><stop offset=".55" class="st2"/><stop offset="1" class="st3"/></linearGradient>
<linearGradient id="gold" x1="0" y1="0" x2="1" y2="1"><stop offset="0" stop-color="#f6dd95"/><stop offset="1" stop-color="#c9922e"/></linearGradient>
<linearGradient id="sun" x1="0" y1="0" x2="0" y2="1"><stop offset="0" stop-color="#ffcf6b"/><stop offset="1" stop-color="#f27a9b"/></linearGradient>
<filter id="sh" x="-40%" y="-40%" width="180%" height="190%"><feDropShadow dx="0" dy="10" stdDeviation="12" flood-color="#1b2559" flood-opacity=".14"/></filter>
<filter id="shs" x="-40%" y="-40%" width="180%" height="190%"><feDropShadow dx="0" dy="4" stdDeviation="6" flood-color="#1b2559" flood-opacity=".14"/></filter>
</defs><rect class="c-soft" width="480" height="220"/><circle class="c-soft2" cx="430" cy="20" r="150"/><circle class="c-soft2" cx="40" cy="230" r="90" opacity=".7"/><g filter="url(#sh)"><rect class="c-card" x="96" y="30" width="288" height="168" rx="20"/></g>
<rect x="124" y="142.0" width="24" height="34.0" rx="6" class="c-soft"/><text class="t-mute" x="136" y="190" font-size="10" font-weight="700" text-anchor="middle">4</text><rect x="160" y="126.7" width="24" height="49.3" rx="6" fill="url(#g)"/><text class="t-mute" x="172" y="190" font-size="10" font-weight="700" text-anchor="middle">5</text><rect x="196" y="109.7" width="24" height="66.3" rx="6" class="c-soft"/><text class="t-mute" x="208" y="190" font-size="10" font-weight="700" text-anchor="middle">6</text><rect x="232" y="92.7" width="24" height="83.3" rx="6" class="c-soft"/><text class="t-mute" x="244" y="190" font-size="10" font-weight="700" text-anchor="middle">7</text><rect x="268" y="75.7" width="24" height="100.3" rx="6" class="c-soft"/><text class="t-mute" x="280" y="190" font-size="10" font-weight="700" text-anchor="middle">8</text><rect x="304" y="58.7" width="24" height="117.3" rx="6" class="c-soft"/><text class="t-mute" x="316" y="190" font-size="10" font-weight="700" text-anchor="middle">9</text><rect x="340" y="43.400000000000006" width="24" height="132.6" rx="6" class="c-soft"/><text class="t-mute" x="352" y="190" font-size="10" font-weight="700" text-anchor="middle">10</text><g class="fl1"><g filter="url(#shs)"><rect class="c-card" x="130" y="78" width="84" height="28" rx="14"/></g>
<text class="t-ink" x="172" y="97" font-size="13" font-weight="800" text-anchor="middle">NCLC 5</text></g><path class="fl3" fill="url(#g)" d="M420 160 Q422.8 167.2 430 170 Q422.8 172.8 420 180 Q417.2 172.8 410 170 Q417.2 167.2 420 160Z"/><path class="fl1" fill="url(#g)" d="M60 52 Q62.24 57.76 68 60 Q62.24 62.24 60 68 Q57.76 62.24 52 60 Q57.76 57.76 60 52Z"/></svg>
