<svg class="art cover" viewBox="0 0 480 220" xmlns="http://www.w3.org/2000/svg" role="img" aria-label="TCF and TEF side by side"><defs>
<linearGradient id="pbg" x1="0" y1="0" x2="1" y2="1"><stop offset="0" class="pb1"/><stop offset=".55" class="pb2"/><stop offset="1" class="pb3"/></linearGradient>
<radialGradient id="glow" cx=".5" cy=".5" r=".5"><stop offset="0" class="gw"/><stop offset="1" class="gw" stop-opacity="0"/></radialGradient>
<linearGradient id="g" x1="0" y1="0" x2="1" y2="1"><stop offset="0" class="st1"/><stop offset=".55" class="st2"/><stop offset="1" class="st3"/></linearGradient>
<linearGradient id="gh" x1="0" y1="0" x2="1" y2="0"><stop offset="0" class="st1"/><stop offset=".6" class="st2"/><stop offset="1" class="st3"/></linearGradient>
<linearGradient id="gold" x1="0" y1="0" x2="1" y2="1"><stop offset="0" stop-color="#f7e2a4"/><stop offset="1" stop-color="#c58f2c"/></linearGradient>
<filter id="sh" x="-30%" y="-30%" width="160%" height="170%"><feDropShadow dx="0" dy="12" stdDeviation="14" flood-color="#141c4d" flood-opacity=".16"/></filter>
<filter id="shs" x="-30%" y="-40%" width="160%" height="190%"><feDropShadow dx="0" dy="5" stdDeviation="7" flood-color="#141c4d" flood-opacity=".16"/></filter>
<clipPath id="clip"><rect width="480" height="220" rx="0"/></clipPath>
</defs><g clip-path="url(#clip)"><rect width="480" height="220" fill="url(#pbg)"/><ellipse cx="86.39999999999999" cy="22.0" rx="240.0" ry="110.0" fill="url(#glow)"/><ellipse cx="456.0" cy="220.0" rx="192.0" ry="99.0" fill="url(#glow)" opacity=".6"/><g transform="rotate(-6 166 112)"><g filter="url(#sh)"><rect class="c-card" x="96" y="42" width="140" height="140" rx="26" /></g><text class="t-ink" x="166" y="124" font-size="34" font-weight="800" text-anchor="middle" >TCF</text></g><g transform="rotate(6 314 112)"><g filter="url(#sh)"><rect fill="url(#g)" x="244" y="42" width="140" height="140" rx="26"/></g><text class="" x="314" y="124" font-size="34" font-weight="800" text-anchor="middle" fill="#fff">TEF</text></g><g filter="url(#sh)"><rect class="c-card" x="212" y="82" width="56" height="56" rx="28" /></g><text class="" x="240" y="117" font-size="19" font-weight="800" text-anchor="middle" fill="url(#g)">vs</text></g><rect x=".5" y=".5" width="479" height="219" rx="0" fill="none" class="k-frame"/></svg>
