<svg class="art cover" viewBox="0 0 480 220" xmlns="http://www.w3.org/2000/svg" role="img" aria-label="TCF and TEF side by side"><defs>
<radialGradient id="bg" cx=".5" cy=".5" r=".5"><stop offset="0" class="sbg"/><stop offset=".65" class="sbg" stop-opacity=".55"/><stop offset="1" class="sbg" stop-opacity="0"/></radialGradient>
<linearGradient id="g" x1="0" y1="0" x2="1" y2="1"><stop offset="0" class="st1"/><stop offset=".55" class="st2"/><stop offset="1" class="st3"/></linearGradient>
<linearGradient id="gh" x1="0" y1="0" x2="1" y2="0"><stop offset="0" class="st1"/><stop offset=".55" class="st2"/><stop offset="1" class="st3"/></linearGradient>
<linearGradient id="gold" x1="0" y1="0" x2="1" y2="1"><stop offset="0" stop-color="#f6dd95"/><stop offset="1" stop-color="#c9922e"/></linearGradient>
<linearGradient id="sun" x1="0" y1="0" x2="0" y2="1"><stop offset="0" stop-color="#ffcf6b"/><stop offset="1" stop-color="#f27a9b"/></linearGradient>
<filter id="sh" x="-40%" y="-40%" width="180%" height="190%"><feDropShadow dx="0" dy="10" stdDeviation="12" flood-color="#1b2559" flood-opacity=".14"/></filter>
<filter id="shs" x="-40%" y="-40%" width="180%" height="190%"><feDropShadow dx="0" dy="4" stdDeviation="6" flood-color="#1b2559" flood-opacity=".14"/></filter>
</defs><rect class="c-soft" width="480" height="220"/><circle class="c-soft2" cx="430" cy="20" r="150"/><circle class="c-soft2" cx="40" cy="230" r="90" opacity=".7"/><g class="fl1" transform="rotate(-6 160 110)" filter="url(#sh)"><rect class="c-card" x="88" y="44" width="140" height="140" rx="24"/></g>
<text class="t-ink" x="158" y="122" font-size="34" font-weight="800" text-anchor="middle" transform="rotate(-6 160 110)">TCF</text>
<g class="fl2" transform="rotate(6 320 110)" filter="url(#sh)"><rect fill="url(#g)" x="252" y="44" width="140" height="140" rx="24"/></g>
<text x="322" y="122" font-size="34" font-weight="800" text-anchor="middle" fill="#fff" transform="rotate(6 320 110)">TEF</text>
<g filter="url(#sh)"><circle class="c-card" cx="240" cy="112" r="28"/></g><text x="240" y="120" font-size="20" font-weight="800" text-anchor="middle" fill="url(#g)">vs</text><path class="fl3" fill="url(#g)" d="M430 51 Q432.52 57.48 439 60 Q432.52 62.52 430 69 Q427.48 62.52 421 60 Q427.48 57.48 430 51Z"/><path class="fl1" fill="url(#g)" d="M50 162 Q52.24 167.76 58 170 Q52.24 172.24 50 178 Q47.76 172.24 42 170 Q47.76 167.76 50 162Z"/></svg>
