<svg class="art" viewBox="0 0 480 360" xmlns="http://www.w3.org/2000/svg" role="img" aria-label="A memory curve that climbs back up at each spaced review, with 10 cards due today"><defs>
<linearGradient id="pbg" x1="0" y1="0" x2="1" y2="1"><stop offset="0" class="pb1"/><stop offset=".55" class="pb2"/><stop offset="1" class="pb3"/></linearGradient>
<radialGradient id="glow" cx=".5" cy=".5" r=".5"><stop offset="0" class="gw"/><stop offset="1" class="gw" stop-opacity="0"/></radialGradient>
<linearGradient id="g" x1="0" y1="0" x2="1" y2="1"><stop offset="0" class="st1"/><stop offset=".55" class="st2"/><stop offset="1" class="st3"/></linearGradient>
<linearGradient id="gh" x1="0" y1="0" x2="1" y2="0"><stop offset="0" class="st1"/><stop offset=".6" class="st2"/><stop offset="1" class="st3"/></linearGradient>
<linearGradient id="gold" x1="0" y1="0" x2="1" y2="1"><stop offset="0" stop-color="#f7e2a4"/><stop offset="1" stop-color="#c58f2c"/></linearGradient>
<filter id="sh" x="-30%" y="-30%" width="160%" height="170%"><feDropShadow dx="0" dy="12" stdDeviation="14" flood-color="#141c4d" flood-opacity=".16"/></filter>
<filter id="shs" x="-30%" y="-40%" width="160%" height="190%"><feDropShadow dx="0" dy="5" stdDeviation="7" flood-color="#141c4d" flood-opacity=".16"/></filter>
<clipPath id="clip"><rect width="480" height="360" rx="28"/></clipPath>
</defs><g clip-path="url(#clip)"><rect width="480" height="360" fill="url(#pbg)"/><ellipse cx="86.39999999999999" cy="36.0" rx="240.0" ry="180.0" fill="url(#glow)"/><ellipse cx="456.0" cy="360.0" rx="192.0" ry="162.0" fill="url(#glow)" opacity=".6"/><g filter="url(#sh)"><rect class="c-card" x="30" y="50" width="306" height="262" rx="20" /></g><text class="t-ink" x="54" y="88" font-size="18" font-weight="800" text-anchor="start" >Memory</text><text class="t-mute" x="54" y="108" font-size="13" font-weight="600" text-anchor="start" >with spaced review</text><path d="M54 132 V268 H316" fill="none" class="k-line" stroke-width="2"/><path d="M66 142 C 110 232, 170 256, 314 262" fill="none" class="k-mute" stroke-width="2.5" stroke-dasharray="3 7" stroke-linecap="round"/><path d="M66 142 C 82 190, 100 212, 124 218 L124 140 C 144 178, 166 194, 192 202 L192 136 C 214 168, 238 182, 262 188 L262 132 C 282 150, 300 158, 314 160" fill="none" stroke="url(#gh)" stroke-width="5" stroke-linecap="round" stroke-linejoin="round"/><circle cx="66" cy="142" r="7" class="c-card" stroke="url(#g)" stroke-width="4"/><text class="t-mute" x="66" y="292" font-size="12.5" font-weight="700" text-anchor="middle" >Day 1</text><circle cx="124" cy="140" r="7" class="c-card" stroke="url(#g)" stroke-width="4"/><text class="t-mute" x="124" y="292" font-size="12.5" font-weight="700" text-anchor="middle" >Day 3</text><circle cx="192" cy="136" r="7" class="c-card" stroke="url(#g)" stroke-width="4"/><text class="t-mute" x="192" y="292" font-size="12.5" font-weight="700" text-anchor="middle" >Day 7</text><circle cx="262" cy="132" r="7" class="c-card" stroke="url(#g)" stroke-width="4"/><text class="t-mute" x="262" y="292" font-size="12.5" font-weight="700" text-anchor="middle" >Day 21</text><g class="fl1"><g filter="url(#sh)"><rect fill="url(#g)" x="340" y="70" width="118" height="128" rx="26"/></g><text class="" x="399" y="104" font-size="12" font-weight="800" text-anchor="middle" fill="#fff" fill-opacity=".85" letter-spacing="1.5">TODAY</text><text class="" x="399" y="154" font-size="44" font-weight="800" text-anchor="middle" fill="#fff">10</text><text class="" x="399" y="180" font-size="13" font-weight="600" text-anchor="middle" fill="#fff" fill-opacity=".85">cards due</text></g></g><rect x=".5" y=".5" width="479" height="359" rx="28" fill="none" class="k-frame"/></svg>
