<svg class="art" viewBox="0 0 480 360" xmlns="http://www.w3.org/2000/svg" role="img" aria-label="A French sentence with the model voice and your recording as two sound waves"><defs>
<linearGradient id="pbg" x1="0" y1="0" x2="1" y2="1"><stop offset="0" class="pb1"/><stop offset=".55" class="pb2"/><stop offset="1" class="pb3"/></linearGradient>
<radialGradient id="glow" cx=".5" cy=".5" r=".5"><stop offset="0" class="gw"/><stop offset="1" class="gw" stop-opacity="0"/></radialGradient>
<linearGradient id="g" x1="0" y1="0" x2="1" y2="1"><stop offset="0" class="st1"/><stop offset=".55" class="st2"/><stop offset="1" class="st3"/></linearGradient>
<linearGradient id="gh" x1="0" y1="0" x2="1" y2="0"><stop offset="0" class="st1"/><stop offset=".6" class="st2"/><stop offset="1" class="st3"/></linearGradient>
<linearGradient id="gold" x1="0" y1="0" x2="1" y2="1"><stop offset="0" stop-color="#f7e2a4"/><stop offset="1" stop-color="#c58f2c"/></linearGradient>
<filter id="sh" x="-30%" y="-30%" width="160%" height="170%"><feDropShadow dx="0" dy="12" stdDeviation="14" flood-color="#141c4d" flood-opacity=".16"/></filter>
<filter id="shs" x="-30%" y="-40%" width="160%" height="190%"><feDropShadow dx="0" dy="5" stdDeviation="7" flood-color="#141c4d" flood-opacity=".16"/></filter>
<clipPath id="clip"><rect width="480" height="360" rx="28"/></clipPath>
</defs><g clip-path="url(#clip)"><rect width="480" height="360" fill="url(#pbg)"/><ellipse cx="86.39999999999999" cy="36.0" rx="240.0" ry="180.0" fill="url(#glow)"/><ellipse cx="456.0" cy="360.0" rx="192.0" ry="162.0" fill="url(#glow)" opacity=".6"/><g filter="url(#sh)"><rect class="c-card" x="70" y="58" width="360" height="252" rx="20" /></g><text class="t-fr" x="130" y="102" font-size="22" text-anchor="start" >Pardon, pouvez-vous</text><text class="t-fr" x="130" y="130" font-size="22" text-anchor="start" >répéter ?</text><text class="t-mute" x="98" y="168" font-size="11.5" font-weight="700" text-anchor="start" letter-spacing="1.2">MODEL</text><rect class="c-mute" x="98" y="181.4" width="6" height="21.2" rx="3"/><rect class="c-mute" x="110" y="175.3" width="6" height="33.5" rx="3"/><rect class="c-mute" x="122" y="173.2" width="6" height="37.5" rx="3"/><rect class="c-mute" x="134" y="181.8" width="6" height="20.4" rx="3"/><rect class="c-mute" x="146" y="179.1" width="6" height="25.8" rx="3"/><rect class="c-mute" x="158" y="173.8" width="6" height="36.4" rx="3"/><rect class="c-mute" x="170" y="176.5" width="6" height="31.1" rx="3"/><rect class="c-mute" x="182" y="179.0" width="6" height="25.9" rx="3"/><rect class="c-mute" x="194" y="177.8" width="6" height="28.4" rx="3"/><rect class="c-mute" x="206" y="174.6" width="6" height="34.9" rx="3"/><rect class="c-mute" x="218" y="181.0" width="6" height="21.9" rx="3"/><rect class="c-mute" x="230" y="176.5" width="6" height="31.0" rx="3"/><rect class="c-mute" x="242" y="176.2" width="6" height="31.7" rx="3"/><rect class="c-mute" x="254" y="177.3" width="6" height="29.4" rx="3"/><rect class="c-mute" x="266" y="177.4" width="6" height="29.2" rx="3"/><rect class="c-mute" x="278" y="175.8" width="6" height="32.4" rx="3"/><rect class="c-mute" x="290" y="176.7" width="6" height="30.6" rx="3"/><rect class="c-mute" x="302" y="181.3" width="6" height="21.4" rx="3"/><rect class="c-mute" x="314" y="174.5" width="6" height="35.0" rx="3"/><rect class="c-mute" x="326" y="177.3" width="6" height="29.5" rx="3"/><rect class="c-mute" x="338" y="179.1" width="6" height="25.9" rx="3"/><rect class="c-mute" x="350" y="176.8" width="6" height="30.5" rx="3"/><rect class="c-mute" x="362" y="173.5" width="6" height="37.0" rx="3"/><rect class="c-mute" x="374" y="179.3" width="6" height="25.3" rx="3"/><rect class="c-mute" x="386" y="182.4" width="6" height="19.2" rx="3"/><rect class="c-mute" x="398" y="173.3" width="6" height="37.4" rx="3"/><text class="t-mute" x="98" y="232" font-size="11.5" font-weight="700" text-anchor="start" letter-spacing="1.2">YOU</text><rect fill="url(#gh)" x="98" y="238.7" width="6" height="34.6" rx="3"/><rect fill="url(#gh)" x="110" y="241.7" width="6" height="28.7" rx="3"/><rect fill="url(#gh)" x="122" y="242.8" width="6" height="26.3" rx="3"/><rect fill="url(#gh)" x="134" y="240.7" width="6" height="30.6" rx="3"/><rect fill="url(#gh)" x="146" y="237.8" width="6" height="36.4" rx="3"/><rect fill="url(#gh)" x="158" y="243.0" width="6" height="26.0" rx="3"/><rect fill="url(#gh)" x="170" y="246.1" width="6" height="19.8" rx="3"/><rect fill="url(#gh)" x="182" y="237.4" width="6" height="37.3" rx="3"/><rect fill="url(#gh)" x="194" y="239.1" width="6" height="33.7" rx="3"/><rect fill="url(#gh)" x="206" y="245.2" width="6" height="21.6" rx="3"/><rect fill="url(#gh)" x="218" y="240.9" width="6" height="30.2" rx="3"/><rect fill="url(#gh)" x="230" y="236.0" width="6" height="39.9" rx="3"/><rect fill="url(#gh)" x="242" y="242.7" width="6" height="26.6" rx="3"/><rect fill="url(#gh)" x="254" y="247.7" width="6" height="16.5" rx="3"/><rect fill="url(#gh)" x="266" y="237.0" width="6" height="37.9" rx="3"/><rect fill="url(#gh)" x="278" y="237.1" width="6" height="37.8" rx="3"/><rect fill="url(#gh)" x="290" y="247.9" width="6" height="16.1" rx="3"/><rect fill="url(#gh)" x="302" y="242.1" width="6" height="27.8" rx="3"/><rect fill="url(#gh)" x="314" y="235.2" width="6" height="41.6" rx="3"/><rect fill="url(#gh)" x="326" y="240.4" width="6" height="31.2" rx="3"/><rect fill="url(#gh)" x="338" y="250.0" width="6" height="12.0" rx="3"/><rect fill="url(#gh)" x="350" y="237.8" width="6" height="36.5" rx="3"/><rect fill="url(#gh)" x="362" y="235.8" width="6" height="40.4" rx="3"/><rect fill="url(#gh)" x="374" y="245.5" width="6" height="21.0" rx="3"/><rect fill="url(#gh)" x="386" y="244.1" width="6" height="23.8" rx="3"/><rect fill="url(#gh)" x="398" y="235.4" width="6" height="41.2" rx="3"/><g class="fl1"><g filter="url(#sh)"><circle cx="72" cy="80" r="38" fill="url(#g)"/></g><rect x="63" y="58" width="18" height="30" rx="9" fill="#fff"/><path d="M55 80 a17 17 0 0 0 34 0" fill="none" stroke="#fff" stroke-width="3.2" stroke-linecap="round"/><rect x="70.5" y="96" width="3" height="9" rx="1.5" fill="#fff"/></g><g class="fl2"><g filter="url(#shs)"><rect class="c-card" x="318" y="290" width="144" height="46" rx="23.0"/></g><path d="M340 307 h22 l-5 -5 M362 319 h-22 l5 5" fill="none" class="k-g2" stroke-width="2.6" stroke-linecap="round" stroke-linejoin="round"/><text class="t-ink" x="410" y="318" font-size="15" font-weight="700" text-anchor="middle" >Compare</text></g></g><rect x=".5" y=".5" width="479" height="359" rx="28" fill="none" class="k-frame"/></svg>
