<svg class="art" viewBox="0 0 480 360" xmlns="http://www.w3.org/2000/svg" role="img" aria-label="A writing task with a mistake corrected, a pen and an NCLC 7 badge"><defs>
<linearGradient id="pbg" x1="0" y1="0" x2="1" y2="1"><stop offset="0" class="pb1"/><stop offset=".55" class="pb2"/><stop offset="1" class="pb3"/></linearGradient>
<radialGradient id="glow" cx=".5" cy=".5" r=".5"><stop offset="0" class="gw"/><stop offset="1" class="gw" stop-opacity="0"/></radialGradient>
<linearGradient id="g" x1="0" y1="0" x2="1" y2="1"><stop offset="0" class="st1"/><stop offset=".55" class="st2"/><stop offset="1" class="st3"/></linearGradient>
<linearGradient id="gh" x1="0" y1="0" x2="1" y2="0"><stop offset="0" class="st1"/><stop offset=".6" class="st2"/><stop offset="1" class="st3"/></linearGradient>
<linearGradient id="gold" x1="0" y1="0" x2="1" y2="1"><stop offset="0" stop-color="#f7e2a4"/><stop offset="1" stop-color="#c58f2c"/></linearGradient>
<filter id="sh" x="-30%" y="-30%" width="160%" height="170%"><feDropShadow dx="0" dy="12" stdDeviation="14" flood-color="#141c4d" flood-opacity=".16"/></filter>
<filter id="shs" x="-30%" y="-40%" width="160%" height="190%"><feDropShadow dx="0" dy="5" stdDeviation="7" flood-color="#141c4d" flood-opacity=".16"/></filter>
<clipPath id="clip"><rect width="480" height="360" rx="28"/></clipPath>
</defs><g clip-path="url(#clip)"><rect width="480" height="360" fill="url(#pbg)"/><ellipse cx="86.39999999999999" cy="36.0" rx="240.0" ry="180.0" fill="url(#glow)"/><ellipse cx="456.0" cy="360.0" rx="192.0" ry="162.0" fill="url(#glow)" opacity=".6"/><g filter="url(#sh)"><rect class="c-card" x="44" y="30" width="308" height="300" rx="18" /></g><text class="t-mute" x="68" y="64" font-size="11.5" font-weight="700" text-anchor="start" letter-spacing="1.2">TÂCHE 1 · 120–150 MOTS</text><text class="t-fr" x="68" y="100" font-size="17.5" text-anchor="start" >L'année dernière, j'ai déménagé</text><text class="t-fr" x="68" y="128" font-size="17.5" text-anchor="start" >à Montréal. Le premier jour,</text><rect x="62" y="142" width="266" height="34" rx="9" class="c-good-soft"/><text class="t-fr" x="70" y="165" font-size="17.5" text-anchor="start" style="fill:var(--art-bad)">j'ai allé</text><rect x="70" y="159" width="62" height="2" class="c-bad"/><text class="t-fr" x="142" y="165" font-size="17.5" text-anchor="start" style="fill:var(--art-good);font-weight:700">je suis allé</text><text class="t-fr" x="68" y="202" font-size="17.5" text-anchor="start" >au bureau en métro.</text><rect class="c-mute" x="68" y="222" width="250" height="8" rx="4.0"/><rect class="c-mute" x="68" y="242" width="222" height="8" rx="4.0"/><rect class="c-mute" x="68" y="262" width="240" height="8" rx="4.0"/><rect class="c-mute" x="68" y="282" width="160" height="8" rx="4.0"/><g class="fl1"><g transform="rotate(36 400 200)" filter="url(#sh)"><rect fill="url(#g)" x="386" y="96" width="30" height="176" rx="13"/><rect class="c-card" x="386" y="136" width="30" height="9" opacity=".5"/><path d="M386 270 L401 312 L416 270 Z" class="c-ink"/><path d="M393 286 L401 312 L409 286 Z" class="c-gold"/></g></g><g class="fl2"><g filter="url(#shs)"><rect fill="url(#gh)" x="340" y="26" width="118" height="46" rx="23.0"/></g><text class="" x="399" y="55" font-size="17" font-weight="800" text-anchor="middle" fill="#fff">NCLC 7</text></g><g class="fl1"><g filter="url(#shs)"><rect class="c-card" x="330" y="288" width="128" height="44" rx="22.0"/></g><text class="t-ink" x="394" y="315" font-size="15" font-weight="800" text-anchor="middle" >142 mots</text></g></g><rect x=".5" y=".5" width="479" height="359" rx="28" fill="none" class="k-frame"/></svg>
